<?xml version="1.0" encoding="UTF-8" standalone="no"?>
<svg
   width="2500"
   height="2500"
   viewBox="0 -410 2566.6666 2375"
   id="svg2"
   sodipodi:version="0.32"
   inkscape:version="1.2.2 (b0a8486541, 2022-12-01)"
   sodipodi:docname="logo.svg"
   inkscape:output_extension="org.inkscape.output.svg.inkscape"
   version="1.0"
   xmlns:inkscape="http://www.inkscape.org/namespaces/inkscape"
   xmlns:sodipodi="http://sodipodi.sourceforge.net/DTD/sodipodi-0.dtd"
   xmlns="http://www.w3.org/2000/svg"
   xmlns:svg="http://www.w3.org/2000/svg"
   xmlns:rdf="http://www.w3.org/1999/02/22-rdf-syntax-ns#"
   xmlns:cc="http://creativecommons.org/ns#"
   xmlns:dc="http://purl.org/dc/elements/1.1/">
  <metadata
     id="metadata15">
    <rdf:RDF>
      <cc:Work
         rdf:about="">
        <dc:format>image/svg+xml</dc:format>
        <dc:type
           rdf:resource="http://purl.org/dc/dcmitype/StillImage" />
      </cc:Work>
    </rdf:RDF>
  </metadata>
  <defs
     id="defs13" />
  <sodipodi:namedview
     inkscape:window-height="728"
     inkscape:window-width="1280"
     inkscape:pageshadow="2"
     inkscape:pageopacity="0.0"
     guidetolerance="10.0"
     gridtolerance="10.0"
     objecttolerance="10.0"
     borderopacity="1.0"
     bordercolor="#666666"
     pagecolor="#ffffff"
     id="base"
     inkscape:zoom="0.11994406"
     inkscape:cx="725.33813"
     inkscape:cy="1617.4206"
     inkscape:window-x="0"
     inkscape:window-y="0"
     inkscape:current-layer="svg2"
     width="3000px"
     height="2000px"
     inkscape:showpageshadow="false"
     inkscape:pagecheckerboard="0"
     inkscape:deskcolor="#d1d1d1"
     showgrid="false"
     inkscape:window-maximized="0" />
  <path
     style="font-style:normal;font-weight:normal;font-size:2050.28px;font-family:'Times New Roman';display:inline;fill:#000000;fill-opacity:1;stroke:none;stroke-width:1px;stroke-linecap:butt;stroke-linejoin:miter;stroke-opacity:1"
     d="m 1494.1127,971.7031 c -114.2161,-79.8146 -184.6508,-180.39853 -211.3043,-301.75231 -26.6539,-121.35368 -3.2733,-245.60963 70.1418,-372.76827 66.0731,-114.44197 152.9952,-188.91106 260.7666,-223.407451 107.7703,-34.495133 214.1429,-24.52219 319.1179,29.918871 l -18.02,31.21159 c -146.7581,-40.802431 -280.3703,43.12363 -400.8369,251.77838 -130.4786,225.99515 -127.7566,404.81754 8.166,536.46779 L 1812.967,419.43122 c 42.3796,-73.40469 77.9545,-124.34384 106.725,-152.81751 28.7686,-28.47283 66.3286,-46.47636 112.6799,-54.01062 46.3494,-7.53332 91.7773,1.54741 136.2838,27.24215 78.0278,45.05046 129.2311,123.54934 153.61,235.49686 24.3765,111.94798 2.5275,226.87703 -65.5469,344.78751 -63.7376,110.39689 -154.8811,189.17199 -273.4278,236.32729 -118.5485,47.1545 -250.3962,36.9233 -395.5436,-30.6938 l -336.3381,581.1152 c -64.8739,81.5822 -118.156,3.8951 -118.156,3.8951 L 366.97421,357.16282 c 0,0 22.56165,-104.1348 104.12438,-53.21594 L 1190.9631,1495.6204 m 424.8155,-518.4087 c 197.751,77.9508 356.6934,12.8878 476.8278,-195.18919 55.3938,-95.94673 82.3549,-187.6946 80.8831,-275.24391 -1.4739,-87.54892 -28.5088,-146.50697 -81.1051,-176.87438 -19.0747,-11.01184 -39.035,-13.48073 -59.8809,-7.40661 -20.8478,6.07485 -38.2,17.44228 -52.0565,34.10232 -13.8584,16.66069 -36.4713,52.15648 -67.8386,106.48748 z"
     id="text2175"
     sodipodi:nodetypes="csscccsccccccccccccccccccsccc"
     inkscape:label="Phi" />
  <path
     style="fill:#ffffff;stroke-width:8.33722"
     d="m 1123.2864,2073.8834 c -9.1252,-8.0245 -184.15432,-289.2882 -388.95349,-625.0303 L 361.97078,838.41287 374.73431,813.73092 c 13.87309,-26.82759 37.21092,-38.20778 62.13299,-30.29783 9.84033,3.1232 149.31502,225.98201 368.32115,588.51981 193.86589,320.9212 355.30795,580.5965 358.76005,577.0562 7.3821,-7.5705 272.3752,-465.0736 284.3882,-490.9883 7.1546,-15.4338 -0.2151,-25.9726 -58.2976,-83.3722 -99.6642,-98.4913 -143.6247,-198.5155 -143.6247,-326.7914 0,-104.46239 41.7981,-221.96381 113.8963,-320.18123 92.0262,-125.36463 253.6016,-197.1595 389.0277,-172.86162 61.2191,10.98381 125.0566,37.39792 120.854,50.00586 -1.7712,5.31362 -31.9091,9.63326 -73.6924,10.56225 -55.2084,1.22748 -79.437,5.87614 -110.5989,21.22033 -86.2339,42.46162 -181.5327,155.79065 -247.679,294.53879 -46.4461,97.42532 -61.0705,161.46832 -56.6903,248.25962 4.0939,81.1197 30.3936,146.432 77.254,191.8508 l 26.8514,26.0254 161.7334,-280.5648 c 171.334,-297.21936 216.783,-362.97313 269.7513,-390.26563 132.1905,-68.11279 287.0575,28.72059 333.9671,208.81901 80.9011,310.60002 -225.178,655.27312 -536.1553,603.76012 -35.2903,-5.8458 -87.8753,-20.0371 -116.8557,-31.5363 -28.9802,-11.4991 -53.8546,-19.607 -55.2765,-18.0175 -1.4218,1.5895 -76.2836,130.4495 -166.3595,286.3555 -90.0758,155.906 -171.6039,290.0311 -181.1735,298.0556 -9.5695,8.0246 -25.9473,14.5902 -36.3949,14.5902 -10.4477,0 -26.4619,-6.5656 -35.5872,-14.5902 z m 730.1123,-623.96 c 94.5927,-46.0355 188.1357,-164.5976 239.499,-303.5557 19.1846,-51.9016 23.2525,-76.6991 23.9345,-145.9013 0.7227,-73.32854 -1.6893,-88.34185 -20.0214,-124.62501 -49.1194,-97.21757 -130.6232,-100.60358 -192.7933,-8.00944 -12.0342,17.92329 -92.0773,154.01365 -177.8736,302.42295 -105.1839,181.9457 -153.2463,272.582 -147.5597,278.2687 17.1472,17.1471 97.866,30.9501 162.2621,27.747 49.545,-2.4645 76.3922,-8.7491 112.5524,-26.3472 z"
     id="path246"
     transform="matrix(1.0266666,0,0,1.0266666,0,-505.8333)" />
</svg>
